HIERARCHY
ROOT Hips
{
  OFFSET 279.157 85.6768 304.565
  CHANNELS 6 Xposition Yposition Zposition Zrotation Xrotation Yrotation
  JOINT LeftUpLeg
  {
    OFFSET 8.64259 1.95398 -2.38835
    CHANNELS 3 Zrotation Xrotation Yrotation
    JOINT LeftLeg
    {
      OFFSET 43.7702 0 0
      CHANNELS 3 Zrotation Xrotation Yrotation
      JOINT LeftFoot
      {
        OFFSET 40.6238 0 0
        CHANNELS 3 Zrotation Xrotation Yrotation
        JOINT LeftToeBase
        {
          OFFSET 12.7242 0 0
          CHANNELS 3 Zrotation Xrotation Yrotation
          End Site
          {
            OFFSET 0 0 0
          }
        }
      }
    }
  }
  JOINT RightUpLeg
  {
    OFFSET -8.2249 1.95398 -2.59336
    CHANNELS 3 Zrotation Xrotation Yrotation
    JOINT RightLeg
    {
      OFFSET 43.5653 0 0
      CHANNELS 3 Zrotation Xrotation Yrotation
      JOINT RightFoot
      {
        OFFSET 40.6238 0 0
        CHANNELS 3 Zrotation Xrotation Yrotation
        JOINT RightToeBase
        {
          OFFSET 12.7242 0 0
          CHANNELS 3 Zrotation Xrotation Yrotation
          End Site
          {
            OFFSET 0 0 0
          }
        }
      }
    }
  }
  JOINT Spine
  {
    OFFSET 0.165834 0.87714 6.61349
    CHANNELS 3 Zrotation Xrotation Yrotation
    JOINT Spine1
    {
      OFFSET 7.38963 1.71661e-005 0
      CHANNELS 3 Zrotation Xrotation Yrotation
      JOINT Spine2
      {
        OFFSET 11.9445 1.14441e-005 0
        CHANNELS 3 Zrotation Xrotation Yrotation
        JOINT Spine3
        {
          OFFSET 14.7254 4.19617e-005 0
          CHANNELS 3 Zrotation Xrotation Yrotation
          JOINT Spine4
          {
            OFFSET 10.9679 0 0
            CHANNELS 3 Zrotation Xrotation Yrotation
            JOINT RightShoulder
            {
              OFFSET 2.46616 -1.6653 3.69651
              CHANNELS 3 Zrotation Xrotation Yrotation
              JOINT RightArm
              {
                OFFSET 13.0012 0 0
                CHANNELS 3 Zrotation Xrotation Yrotation
                JOINT RightForeArm
                {
                  OFFSET 28.7848 1.52588e-005 0
                  CHANNELS 3 Zrotation Xrotation Yrotation
                  JOINT RightHand
                  {
                    OFFSET 26.5688 1.52588e-005 0
                    CHANNELS 3 Zrotation Xrotation Yrotation
                    End Site
                    {
                      OFFSET 0 0 0
                    }
                  }
                }
              }
            }
            JOINT LeftShoulder
            {
              OFFSET 2.38034 -1.29275 -3.7523
              CHANNELS 3 Zrotation Xrotation Yrotation
              JOINT LeftArm
              {
                OFFSET 16.3182 6.10351e-005 0
                CHANNELS 3 Zrotation Xrotation Yrotation
                JOINT LeftForeArm
                {
                  OFFSET 27.0901 0 0
                  CHANNELS 3 Zrotation Xrotation Yrotation
                  JOINT LeftHand
                  {
                    OFFSET 24.5451 1.52588e-005 0
                    CHANNELS 3 Zrotation Xrotation Yrotation
                    End Site
                    {
                      OFFSET 0 0 0
                    }
                  }
                }
              }
            }
            JOINT Neck
            {
              OFFSET 5.0226 -0.0266342 0
              CHANNELS 3 Zrotation Xrotation Yrotation
              JOINT Head
              {
                OFFSET 6.69364 2.86102e-005 0
                CHANNELS 3 Zrotation Xrotation Yrotation
                End Site
                {
                  OFFSET 0 0 0
                }
              }
            }
          }
        }
      }
    }
  }
}
MOTION
Frames:	15
Frame Time:	0.0416667
-305.521 101.042 -281.727 101.516 -49.1415 97.9943 -174.36 -6.74017 89.5695 -6.78873 1.33189 0.340511 64.2369 3.58259 -0.690955 13.6211 -4.35204 -10.1861 174.026 -2.41045 88.9187 -12.8596 -18.4126 -1.29708 60.3913 -0.429857 -6.15226 27.6583 -0.732295 8.11647 -0.035901 8.00315 -90.0642 10.845 -0.10111 -0.118362 -0.825981 -0.106218 -0.113797 -23.3611 -0.0608882 -0.143273 -3.34846 -0.0608696 -0.143278 87.8478 -32.6464 -109.869 38.7075 -13.9164 -6.89362 0.9155 -39.2314 -18.1053 -16.7075 -0.93858 -14.1702 -91.8572 -56.7317 77.5077 -16.9431 15.7 -13.7662 -2.20482 3.95438 -9.93311 -4.12427 0.0728334 -15.024 8.08411 -8.7209 -0.822165 -4.85488 -8.29145 -3.33258 
-305.551 101.018 -281.657 101.445 -49.6628 98.2469 -174.166 -6.31032 89.8554 -7.50209 0.92136 0.278788 64.6482 3.59985 -0.538913 2.5461 -4.09934 -21.0143 174.555 -2.35087 89.4364 -12.8532 -18.1579 -1.62056 60.3527 -0.430261 -5.78151 27.431 -0.669953 8.10166 0.0317273 8.00255 -90.118 10.8631 0.00860015 -0.235493 -0.807823 -0.00174391 -0.235656 -23.3428 0.0789791 -0.222022 -3.33017 0.07898 -0.222023 87.9394 -32.2996 -109.839 38.8747 -13.592 -7.15331 1.12535 -42.7344 -17.5734 -10.2331 -1.38799 -17.2526 -91.8816 -57.2173 77.5783 -16.651 15.5924 -13.8652 -2.4011 3.34465 -9.56704 -4.11281 0.0860716 -17.5689 8.29861 -8.5322 -0.304698 -4.83116 -8.19397 -4.04812 
-305.563 100.997 -281.623 101.558 -49.5388 98.3654 -174.136 -6.19071 89.923 -7.95428 1.00157 0.317916 64.8914 3.63715 -0.567092 19.7449 -3.97361 -2.79061 174.508 -2.65112 89.4365 -12.5677 -17.7075 -1.54684 60.7523 -0.711126 -5.42984 26.9679 -0.543996 8.08267 0.0201422 8.00314 -90.1619 10.8682 -0.0345801 -0.318648 -0.80276 -0.0485691 -0.316833 -23.3376 0.0627886 -0.314309 -3.32497 0.0627694 -0.314324 87.7416 -31.9113 -110.376 38.7619 -13.2971 -7.45618 2.36867 -50.7924 -16.1855 2.37853 -3.3658 -25.4837 -92.0168 -58.0699 77.5759 -16.0602 14.9345 -13.9449 -1.65764 6.28967 -9.55794 -6.9055 0.342815 -15.0413 8.1881 -8.3597 0.417316 -4.4648 -8.17831 -4.48842 
-305.572 100.938 -281.6 101.63 -49.4806 98.3877 -174.167 -6.07599 89.9187 -8.28291 0.976933 0.356592 64.9999 3.53838 -0.837196 23.2702 -3.82538 2.86863 174.588 -2.91566 89.4515 -12.3534 -16.8774 -1.62912 61.4527 -1.1327 -4.73286 26.1624 -0.316399 7.99517 0.0218307 8.00425 -90.186 10.8652 -0.0423578 -0.365937 -0.805833 -0.0584255 -0.363718 -23.3406 0.0695671 -0.361746 -3.32794 0.0695737 -0.361747 87.6777 -31.6085 -110.626 38.9369 -12.9 -7.30378 1.95786 -57.1956 -16.8236 11.6391 -6.01271 -32.5782 -92.1374 -58.3569 77.4728 -15.8998 14.8822 -13.982 -1.57291 6.90642 -9.77786 -6.89167 0.299868 -14.2332 8.06135 -8.45935 0.444907 -4.095 -8.30804 -3.80664 
-305.63 100.868 -281.598 101.231 -49.2902 98.1172 -174.146 -5.37726 89.9753 -9.21061 1.27249 0.339952 65.6017 3.74636 -0.497514 22.4789 -4.01921 2.0658 174.673 -3.05499 89.5334 -11.771 -15.6315 -1.58896 62.17 -1.61105 -3.81339 25.6314 -0.189356 8.09306 -0.0105399 7.97745 -90.233 10.9185 -0.128934 -0.451281 -0.752508 -0.148659 -0.445185 -23.287 0.0126585 -0.469169 -3.27439 0.0126586 -0.469171 87.7719 -31.0401 -110.689 39.0792 -13.1247 -7.4322 3.06778 -56.2922 -16.0428 11.2977 -5.82647 -32.09 -92.2225 -59.0691 77.5093 -15.4285 14.9891 -13.9182 -1.61794 6.56356 -9.9436 -6.85994 0.277466 -13.741 8.39727 -8.26039 1.57477 -4.70024 -8.3124 -4.61999 
-305.677 100.774 -281.543 101.239 -49.1601 97.8873 -174.039 -5.02532 89.9413 -9.98993 1.44968 0.139572 65.9268 3.76778 -0.683905 22.6553 -4.04692 2.48801 174.315 -3.17436 89.1461 -11.7469 -14.5077 -1.33308 63.5059 -2.39911 -2.6194 24.0272 0.218149 8.22139 -0.0176699 7.98562 -90.1941 10.9022 -0.124976 -0.37433 -0.768739 -0.141342 -0.368463 -23.3035 -0.00668334 -0.394576 -3.29081 -0.00670005 -0.394586 87.6018 -31.209 -110.943 39.0192 -13.4535 -7.22822 3.92364 -43.7031 -15.1819 -7.62233 -1.78222 -19.3773 -92.1083 -58.7898 77.6044 -15.6919 14.9187 -13.893 -1.42913 7.17398 -10.0339 -6.9025 0.244175 -12.8822 8.14291 -8.28254 1.07424 -4.5307 -8.24366 -4.22422 
-305.807 100.651 -281.439 101.14 -49.1383 97.8977 -173.931 -4.37669 90.1729 -11.1368 1.63214 0.127212 66.3718 3.73734 -0.776315 23.0979 -3.83457 2.62776 174.368 -3.4966 89.2439 -11.1998 -12.9641 -1.23002 64.5731 -3.03361 -1.1198 23.2691 0.425648 8.19877 -0.00606897 8.00566 -90.2001 10.8622 -0.104549 -0.388216 -0.80881 -0.121524 -0.383246 -23.3435 0.016961 -0.401689 -3.33085 0.0169595 -0.401688 87.6615 -31.0312 -110.905 39.275 -14.3328 -7.35462 3.23318 -30.3711 -15.3029 -23.3986 -0.409686 -10.7301 -91.9464 -58.2187 77.7035 -16.2081 14.6817 -13.9881 -1.41101 7.51599 -10.0561 -9.60822 0.593287 -15.0587 8.26483 -8.20414 1.06705 -4.45524 -8.16543 -4.39622 
-305.958 100.567 -281.295 101.212 -49.1445 98.2054 -173.868 -3.94353 90.4562 -12.1669 1.66437 0.296399 67.1133 3.91845 -0.523963 22.57 -4.05535 2.34288 174.447 -4.25621 89.484 -10.0017 -10.9675 -1.02274 65.5213 -3.61883 0.782062 21.7089 0.761073 8.62343 0.0207925 8.02721 -90.2371 10.8191 -0.0680369 -0.465134 -0.851965 -0.0884438 -0.461699 -23.3865 0.0749101 -0.464079 -3.37381 0.0748837 -0.464086 87.559 -31.1319 -111.059 39.0947 -14.5339 -7.19061 2.26855 -28.8711 -15.7192 -15.8683 -0.734464 -10.7998 -92.1215 -58.5644 77.5387 -15.7476 14.9732 -14.1528 -1.64817 6.92154 -9.71637 -3.42366 0.0579331 -11.367 9.2495 -7.91824 1.95721 -6.20044 -7.95379 -6.10337 
-306.091 100.421 -281.044 100.896 -49.0947 97.6387 -174.039 -3.5505 90.2502 -12.6749 1.49176 0.358915 67.2906 3.78985 -0.705144 20.9157 -3.81385 -1.36992 174.549 -4.84743 89.3641 -8.91605 -9.06059 -1.20555 67.0099 -4.33055 2.85543 19.9934 1.30953 8.18562 0.0180492 7.99221 -90.2007 10.8892 -0.0568059 -0.393865 -0.781812 -0.0740792 -0.390998 -23.3165 0.064183 -0.392738 -3.30385 0.0642095 -0.39273 87.635 -31.0462 -110.95 39.2838 -14.6018 -6.88116 2.10261 -28.5417 -15.9617 -15.7837 -0.7506 -10.4664 -92.3541 -58.8089 77.2755 -15.3491 15.2516 -13.9089 -1.73764 6.05069 -10.1691 -5.61174 0.154262 -13.0106 9.2676 -7.88744 2.19738 -6.91998 -7.92918 -6.46424 
-306.037 100.323 -280.715 101.298 -48.827 97.9287 -174.046 -3.74022 90.3572 -13.23 1.7129 0.533494 67.6041 3.77948 -0.848501 23.5357 -3.61549 2.72004 174.517 -6.05575 89.3338 -7.79638 -6.59745 -1.14229 68.5207 -4.88176 5.32745 18.1978 1.75896 8.35821 0.0103673 8.02112 -90.2084 10.8313 -0.0755417 -0.407363 -0.839702 -0.0934095 -0.403643 -23.3743 0.050373 -0.41123 -3.36169 0.0503693 -0.41124 87.7571 -30.7937 -110.824 39.518 -14.5833 -6.92655 2.4742 -28.3202 -15.5063 -16.0887 -0.653217 -11.2451 -92.3199 -58.9591 77.3541 -15.2829 15.2836 -13.8423 -1.67062 6.41829 -10.4185 -5.14576 0.0980103 -12.1822 8.9913 -7.70592 2.57944 -6.58244 -7.83938 -6.69453 
-306.283 100.199 -280.322 101.448 -48.9176 97.9752 -173.783 -3.52886 90.6899 -13.9982 1.78162 0.396955 68.0164 3.76618 -1.03304 23.5595 -3.54437 2.54264 174.615 -6.34089 89.4123 -7.92501 -4.05159 -1.09474 70.7017 -5.47471 8.18407 15.9761 2.38739 8.25956 0.0514683 8.03145 -90.2061 10.8108 0.00742125 -0.41048 -0.860183 -0.0106682 -0.410408 -23.3949 0.130436 -0.389268 -3.38221 0.130437 -0.389278 87.8278 -30.9858 -110.605 39.427 -14.3422 -6.85848 2.38781 -29.2751 -15.5885 -16.0085 -0.68795 -11.4445 -92.4267 -59.0716 77.2341 -15.3415 15.0435 -14.0456 -1.60239 6.74834 -10.0821 -4.27916 0.0434357 -12.3046 8.89935 -7.77586 2.62499 -6.48131 -7.93285 -6.41942 
-306.357 100.045 -279.949 101.419 -48.621 97.9896 -173.721 -3.17924 90.948 -14.9733 2.09051 0.50101 68.5733 3.84347 -1.02487 23.7963 -3.40594 2.51041 174.754 -6.69132 89.5815 -8.00667 -0.896288 -1.00874 73.041 -6.12251 11.0243 14.4064 2.79649 8.34415 0.0119559 8.04963 -90.2052 10.7743 -0.0706486 -0.401415 -0.896682 -0.0882549 -0.397914 -23.4314 0.0532415 -0.404088 -3.4187 0.0532493 -0.404095 87.6776 -31.0129 -110.883 39.412 -14.347 -6.98442 2.11382 -28.6853 -15.7805 -15.7939 -0.636949 -11.7553 -92.1587 -58.953 77.5709 -15.2677 15.0251 -14.0808 -1.51346 6.64163 -10.4431 -4.64215 0.0648126 -12.1761 9.32434 -7.4872 2.96092 -6.70792 -7.70811 -6.65438 
-306.028 99.8977 -279.66 101.115 -47.8928 97.368 -174.422 -3.09094 90.2411 -15.4999 1.86069 1.10262 69.0507 3.85725 -1.3592 26.3309 -3.43574 8.02192 173.876 -7.0126 88.7409 -8.13097 1.8832 -0.423659 75.5163 -6.57812 14.506 12.0536 3.5755 7.90147 -0.0578666 8.02538 -90.1605 10.8228 -0.189288 -0.301448 -0.8482 -0.202376 -0.292838 -23.3831 -0.0899265 -0.344403 -3.37047 -0.0899402 -0.344406 87.6992 -31.3212 -110.708 39.3292 -14.2304 -6.78365 1.90527 -29.2855 -16.163 -15.8708 -0.648618 -11.9399 -92.2357 -58.5266 77.3754 -15.6044 14.9804 -13.8902 -1.51048 6.66981 -10.2971 -4.23425 0.0337972 -12.01 9.08265 -7.50123 2.47482 -6.43094 -7.65422 -5.95333 
-306.197 99.7 -279.063 101.027 -47.833 97.3434 -174.312 -2.79439 90.6081 -16.3938 2.07673 1.21296 69.5222 3.94647 -1.29687 25.8365 -3.04591 5.49463 174.232 -7.35173 89.0955 -8.20753 5.1691 -0.461219 77.8122 -6.83576 17.8307 10.5446 4.04916 7.75297 -0.0903634 8.04788 -90.1955 10.7775 -0.270019 -0.363759 -0.893434 -0.285781 -0.351527 -23.4283 -0.14825 -0.428104 -3.41562 -0.148224 -0.428099 87.6993 -31.0782 -110.812 39.225 -14.3975 -6.86908 1.76746 -29.1353 -16.5127 -15.2923 -0.726826 -11.2613 -92.0691 -58.9059 77.6823 -15.1907 15.1691 -14.1861 -1.66591 6.26165 -10.2568 -3.51849 -0.0105168 -11.7312 9.29652 -7.23193 3.02204 -6.43493 -7.50206 -6.22544 
-306.463 99.5355 -278.384 100.775 -47.9528 97.016 -174.208 -2.40116 90.8595 -17.2098 1.90187 1.23073 69.9628 4.07564 -1.55931 25.8301 -2.57742 3.77009 174.31 -7.53018 89.2008 -8.26697 8.03661 -0.333601 79.9465 -6.81647 21.2852 8.63533 4.70003 7.43524 -0.0680446 8.0262 -90.1747 10.8212 -0.216105 -0.327347 -0.849806 -0.230302 -0.317527 -23.3847 -0.107745 -0.377168 -3.37203 -0.107725 -0.377161 87.6589 -31.2917 -110.798 39.4588 -14.0043 -6.26313 0.875835 -29.2791 -17.5458 -14.8339 -0.735749 -11.4819 -92.3071 -58.866 77.3515 -15.5449 15.0796 -13.4374 -1.63148 4.86723 -10.7771 -1.34165 -0.166178 -11.0707 8.70417 -7.07921 2.69238 -6.1501 -7.30043 -5.84566 
